<svg width="24" height="24" viewBox="0 0 24 24" fill="none" xmlns="http://www.w3.org/2000/svg">
<g clip-path="url(#clip0)">
<path d="M15.9999 23.0001C15.3999 23.0001 14.9999 22.6001 14.9999 22.0001V18.1001C15.0999 17.3001 14.7999 16.7001 14.2999 16.2001C13.9999 15.9001 13.8999 15.5001 14.0999 15.2001C14.1999 14.8001 14.5999 14.6001 14.8999 14.5001C17.7999 14.2001 20.4999 13.2001 20.4999 8.50014C20.4999 7.40014 20.0999 6.30014 19.2999 5.40014C18.9999 5.10014 18.9999 4.70014 19.0999 4.40014C19.3999 3.60014 19.3999 2.80014 19.1999 2.00014C18.6999 2.10014 17.8999 2.40014 16.5999 3.30014C16.3999 3.50014 16.0999 3.50014 15.7999 3.40014C13.6999 2.80014 11.3999 2.80014 9.29986 3.40014C8.99986 3.50014 8.69986 3.50014 8.39986 3.30014C7.19986 2.40014 6.29986 2.10014 5.79986 2.00014C5.59986 2.80014 5.59986 3.60014 5.89986 4.40014C5.99986 4.80014 5.99986 5.20014 5.69986 5.40014C4.89986 6.30014 4.49986 7.40014 4.49986 8.50014C4.49986 13.2001 7.19986 14.2001 10.0999 14.5001C10.4999 14.5001 10.7999 14.8001 10.8999 15.2001C10.9999 15.6001 10.8999 16.0001 10.6999 16.2001C10.1999 16.7001 9.99986 17.3001 9.99986 18.0001V18.9001V19.0001V21.9001C9.99986 22.5001 9.59986 22.9001 8.99986 22.9001C8.39986 22.9001 7.99986 22.5001 7.99986 21.9001V20.2001C4.99986 20.7001 3.69986 19.0001 2.79986 17.9001C2.39986 17.4001 2.09986 17.0001 1.69986 16.9001C1.19986 16.8001 0.799862 16.2001 0.999862 15.7001C1.09986 15.2001 1.69986 14.8001 2.19986 15.0001C3.19986 15.3001 3.79986 16.0001 4.39986 16.7001C5.19986 17.8001 5.89986 18.6001 7.99986 18.2001V18.1001C7.99986 17.5001 8.09986 16.8001 8.29986 16.3001C5.49986 15.7001 2.49986 13.9001 2.49986 8.60014C2.49986 7.10014 2.99986 5.70014 3.89986 4.60014C3.49986 3.20014 3.59986 1.90014 4.19986 0.600141C4.29986 0.300141 4.49986 0.10014 4.79986 0.000140496C5.19986 -0.0998595 6.49986 -0.29986 9.19986 1.40014C11.3999 0.900141 13.6999 0.900141 15.7999 1.40014C18.3999 -0.29986 19.7999 -0.0998595 20.1999 0.000140496C20.4999 0.10014 20.6999 0.300141 20.7999 0.600141C21.2999 1.90014 21.3999 3.20014 21.0999 4.50014C21.9999 5.60014 22.4999 7.00014 22.4999 8.50014C22.4999 14.2001 19.0999 15.7001 16.6999 16.3001C16.8999 16.9001 16.9999 17.6001 16.9999 18.2001V22.0001C16.9999 22.6001 16.5999 23.0001 15.9999 23.0001Z" fill="#4790FF"/>
</g>
<defs>
<clipPath id="clip0">
<rect width="24" height="24" fill="white"/>
</clipPath>
</defs>
</svg>
